<?xml version="1.0" standalone="no"?><!DOCTYPE svg PUBLIC "-//W3C//DTD SVG 1.1//EN" "http://www.w3.org/Graphics/SVG/1.1/DTD/svg11.dtd"><svg t="1767078211348" class="icon" viewBox="0 0 1024 1024" version="1.1" xmlns="http://www.w3.org/2000/svg" p-id="6066" width="500" height="500" xmlns:xlink="http://www.w3.org/1999/xlink"><path d="M748.5 63.9H281.6c-10.8 0-20.7 5.8-25.9 15.2L111.3 336.2h807.4L774.4 79.1c-5.2-9.4-15.2-15.2-25.9-15.2z" fill="#FC8308" p-id="6067"></path><path d="M914.6 954h-799c-2.3 0-4.2-1.9-4.2-4.2V336.2h807.4v613.6c0 2.3-1.9 4.2-4.2 4.2z" fill="#FAB001" p-id="6068"></path><path d="M836 336.2H111.3v538.2H770c36.4 0 65.9-29.5 65.9-65.9V336.2z" fill="#F9E48A" p-id="6069"></path><path d="M830.2 874.4H197.3V336.2H836v532.5c0 3.1-2.6 5.7-5.8 5.7z" fill="#FECE0A" p-id="6070"></path><path d="M620.7 336.2H409.4l38.3-272.3h134.7z" fill="#52C5F8" p-id="6071"></path><path d="M598.1 525.7L521.8 490c-4.3-2-9.2-2-13.4 0L432 525.7c-10.5 4.9-22.6-2.8-22.6-14.4V336.2h211.2v175.1c0.1 11.6-12 19.3-22.5 14.4z" fill="#9CE4F3" p-id="6072"></path></svg>