<?xml version="1.0" standalone="no"?><!DOCTYPE svg PUBLIC "-//W3C//DTD SVG 1.1//EN" "http://www.w3.org/Graphics/SVG/1.1/DTD/svg11.dtd"><svg t="1767075504090" class="icon" viewBox="0 0 1024 1024" version="1.1" xmlns="http://www.w3.org/2000/svg" p-id="5262" width="500" height="500" xmlns:xlink="http://www.w3.org/1999/xlink"><path d="M250.88 165.888h267.264a85.504 85.504 0 0 1 84.992 84.992V819.2H165.888V250.88A84.992 84.992 0 0 1 250.88 165.888z m0 0" fill="#6971e9" p-id="5263"></path><path d="M311.808 311.808h145.408a31.744 31.744 0 0 1 36.352 36.352 32.256 32.256 0 0 1-36.352 36.352H311.808a32.256 32.256 0 0 1-36.352-36.352 31.744 31.744 0 0 1 36.352-36.352z m0 145.408h145.408a32.256 32.256 0 0 1 36.352 36.352 31.744 31.744 0 0 1-36.352 36.352H311.808a31.744 31.744 0 0 1-36.352-36.352 32.256 32.256 0 0 1 36.352-36.352z m0 145.92h145.408a31.744 31.744 0 0 1 36.352 36.352 32.256 32.256 0 0 1-36.352 36.352H311.808a32.256 32.256 0 0 1-36.352-36.352 31.744 31.744 0 0 1 36.352-36.352z m0 0" fill="#FFFFFF" p-id="5264"></path><path d="M123.392 784.896h776.704a36.864 36.864 0 0 1 31.744 18.432 35.84 35.84 0 0 1 0 36.352 36.352 36.352 0 0 1-31.744 17.92H123.392a36.352 36.352 0 0 1-31.232-54.272 35.84 35.84 0 0 1 31.232-18.432z m0 0" fill="#6971e9" p-id="5265"></path><path d="M639.488 512v307.2h218.112v-285.184a20.992 20.992 0 0 0-15.36-20.48l-148.992-41.984a42.496 42.496 0 0 0-36.864 6.656 43.008 43.008 0 0 0-16.896 34.304z m0 0" fill="#ee664a" p-id="5266"></path></svg>