<?xml version="1.0" standalone="no"?><!DOCTYPE svg PUBLIC "-//W3C//DTD SVG 1.1//EN" "http://www.w3.org/Graphics/SVG/1.1/DTD/svg11.dtd"><svg t="1766981626423" class="icon" viewBox="0 0 1024 1024" version="1.1" xmlns="http://www.w3.org/2000/svg" p-id="6242" width="500" height="500" xmlns:xlink="http://www.w3.org/1999/xlink"><path d="M746.760408 666.611201c-2.815982 2.424455-5.752434 4.713382-8.794298 6.821604-1.355286 1.023994-2.770806 2.002811-4.156209 2.996687C534.146223 816.716605 513.831998 980.480275 512.100245 1024l-0.090353-1.249874c-11.971689-176.864764-155.48137-298.072468-207.283395-336.261404C168.595593 597.250699 105.75552 431.017397 149.079481 274.752973 192.403443 118.48855 332.04303 7.716544 494.978471 0.382943 657.868735-6.92054 806.995321 90.855783 864.354017 242.602588c57.343637 151.731746 9.863467 322.91937-117.608668 424.023672z" fill="#676767" p-id="6243"></path><path d="M511.829187 112.224119c145.467315 0 263.407276 117.217141 263.407276 261.81105 0 144.608968-117.924901 261.826109-263.407276 261.826109-145.467315 0-263.407276-117.217141-263.407275-261.826109 0-144.593909 117.924901-261.81105 263.407275-261.81105z" fill="#FFFFFF" p-id="6244"></path><path d="M339.120633 449.795631h27.813471c20.946691 0 35.40307-17.980122 35.40307-37.737173 0-11.278988-4.713382-21.985743-12.649332-29.078404 7.93595-7.10772 12.649332-17.799417 12.649332-29.093464 0-19.757052-14.456379-37.722114-35.40307-37.722114h-27.82853v-34.273666l82.205598 36.908943v79.1035c0 6.957132 5.662082 12.589097 12.649331 12.589097 6.972191 0 12.649332-5.631964 12.649332-12.589097v-67.73416l56.891876 25.554662V557.179423l-164.396137-69.179798V449.81069zM624.438358 241.247303l50.747914 21.368335-159.200875 71.04708-43.143257-19.395642 151.596218-73.019773z m-30.975804-12.739684l-150.783047 72.733657-85.593812-38.520227L515.849868 195.769943l77.627744 32.737676zM528.303436 557.179423V355.693638L692.699573 282.357631v205.611876L528.303436 557.179423zM273.329049 352.380718c21.579158-7.318542 34.228489-10.992872 37.947995-10.992872h55.65706c5.571729 0 10.119465 5.647023 10.119465 12.589097 0 6.942074-4.532677 12.574038-10.119465 12.574038h-55.642001c-3.734565 0-16.383896-4.713382-37.963054-14.155205z m6.3849 59.647622c17.317538-8.372653 27.858647-12.574038 31.578154-12.574038h55.642001c5.571729 0 10.119465 5.631964 10.119465 12.574038 0 6.957132-4.532677 12.589097-10.119465 12.589097h-55.642001c-3.734565 0-14.260616-4.201385-31.578154-12.589097z" fill="#d81e06" p-id="6245"></path><path d="M512.009892 0.081769C671.963704 0.036593 814.46445 100.508428 867.305528 250.553597c52.856136 150.060228 4.50256 316.925996-120.560179 416.072663-2.800923 2.409397-5.722317 4.698323-8.779239 6.806545-1.355286 1.023994-2.770806 2.002811-4.156209 2.996687-12.799919 9.00512-25.298664 18.431883-37.481174 28.280292L383.016826 22.654803c56.394938-15.088846 99.387607-22.61821 128.993066-22.588093z" fill="#FFFFFF" p-id="6246"></path></svg>