<?xml version="1.0" standalone="no"?><!DOCTYPE svg PUBLIC "-//W3C//DTD SVG 1.1//EN" "http://www.w3.org/Graphics/SVG/1.1/DTD/svg11.dtd"><svg t="1767331611418" class="icon" viewBox="0 0 1024 1024" version="1.1" xmlns="http://www.w3.org/2000/svg" p-id="5025" width="500" height="500" xmlns:xlink="http://www.w3.org/1999/xlink"><path d="M770.7 152.4h-96.6s-30.8 76-66.6 72.2H423.2c-35.9 3.8-66.6-72.2-66.6-72.2h-99.8c-54.3 0-98.7 45.5-98.7 101.2V827c0 55.7 44.4 101.2 98.7 101.2h514c54.2 0 98.5-45.3 98.7-100.8V253.1c-0.3-55.4-44.6-100.7-98.8-100.7z m-53.1 577.3H313.2c-14.9 0-26.9-12.1-26.9-27.1 0-15 12.1-27.1 26.9-27.1h404.4c14.9 0 27 12.1 27 27.1-0.1 15-12.1 27.1-27 27.1z m0-162.3H313.2c-14.9 0-26.9-12.1-26.9-27.1 0-15 12.1-27.1 26.9-27.1h404.4c14.9 0 27 12.1 27 27.1-0.1 14.9-12.1 27.1-27 27.1z m0-144.4H313.2c-14.9 0-26.9-12.1-26.9-27.1 0-15 12.1-27.1 26.9-27.1h404.4c14.9 0 27 12.1 27 27.1-0.1 15-12.1 27.1-27 27.1z" fill="#E92636" p-id="5026"></path><path d="M637.3 206.5H390.1c-0.5 0-0.9-0.4-0.9-0.9V99.1c0-0.5 0.4-0.9 0.9-0.9h247.2c0.5 0 0.9 0.4 0.9 0.9v106.4c0 0.6-0.4 1-0.9 1z" fill="#E92636" p-id="5027"></path></svg>