<?xml version="1.0" standalone="no"?><!DOCTYPE svg PUBLIC "-//W3C//DTD SVG 1.1//EN" "http://www.w3.org/Graphics/SVG/1.1/DTD/svg11.dtd"><svg t="1767668632302" class="icon" viewBox="0 0 1024 1024" version="1.1" xmlns="http://www.w3.org/2000/svg" p-id="4958" width="500" height="500" xmlns:xlink="http://www.w3.org/1999/xlink"><path d="M79.7696 689.8688h876.4928v107.2128a111.7696 111.7696 0 0 1-111.7696 111.7696H191.5392a111.7696 111.7696 0 0 1-111.7696-111.7696v-107.2128z" fill="#FDA338" p-id="4959"></path><path d="M853.8624 268.4416h-87.04l-163.2768-145.1008A129.28 129.28 0 0 0 432.384 122.88L267.4176 268.4416H182.1696a133.12 133.12 0 0 0-133.12 133.12v404.8384a133.12 133.12 0 0 0 133.12 133.12h671.6928a133.12 133.12 0 0 0 133.12-133.12V401.5616a133.12 133.12 0 0 0-133.12-133.12zM472.9856 168.96a67.7376 67.7376 0 0 1 89.7024 0l111.5136 99.1744H360.2944z m452.5568 637.44a71.68 71.68 0 0 1-71.68 71.68H182.1696a71.68 71.68 0 0 1-71.68-71.68V401.5616a71.68 71.68 0 0 1 71.68-71.68h671.6928a71.68 71.68 0 0 1 71.68 71.68z" fill="#474A54" p-id="4960"></path><path d="M756.1216 479.744H271.7184a30.72 30.72 0 0 0 0 61.44h484.4032a30.72 30.72 0 0 0 0-61.44zM611.4304 659.1488H271.7184a30.72 30.72 0 1 0 0 61.44h339.712a30.72 30.72 0 1 0 0-61.44z" fill="#474A54" p-id="4961"></path></svg>