<?xml version="1.0" standalone="no"?><!DOCTYPE svg PUBLIC "-//W3C//DTD SVG 1.1//EN" "http://www.w3.org/Graphics/SVG/1.1/DTD/svg11.dtd"><svg t="1767149798047" class="icon" viewBox="0 0 1024 1024" version="1.1" xmlns="http://www.w3.org/2000/svg" p-id="5972" width="500" height="500" xmlns:xlink="http://www.w3.org/1999/xlink"><path d="M514.66752 983.808c-79.0016 1.024-157.7728-2.17088-235.35616-18.93376-6.71232-1.44896-13.33248-3.3536-19.89632-5.38624-38.92736-12.04224-32.14336-3.75808-29.59872-43.66848 1.91488-30.01344 7.5008-59.81184 11.80672-89.65632 3.44064-23.8848 15.95392-42.42944 35.52256-56.064 41.92256-29.19424 90.13248-43.79136 138.30656-58.17856 3.4304-1.024 9.82016 2.3296 12.63616 5.57056 52.43904 60.26752 122.91584 60.18048 176.49152-0.03072 3.21024-3.60448 11.47392-6.33856 15.72864-4.82304 35.80928 12.75904 71.73632 25.46688 106.65472 40.43776 40.56064 17.38752 64.91136 47.52896 67.78368 93.51168 1.8432 29.5424 5.64224 58.98752 9.5744 88.33536 1.65888 12.3904-3.61984 17.6896-14.41792 19.88096-37.25312 7.57248-74.33216 16.30208-111.85152 22.17984-27.12064 4.2496-54.8096 5.504-82.304 6.59456-26.9824 1.06496-54.04672 0.2304-81.08032 0.2304z m-137.66144-242.05824c-14.26944 5.6064-22.784 9.96352-31.8208 12.25728-13.17376 3.3536-14.84288 10.0864-12.7744 22.97344 8.49408 52.92544 17.28512 121.55392-14.33088 171.42784-8.44288 13.32736-1.75616 22.05696 14.05952 24.23808 124.14464 17.13664 248.26368 16.59392 372.41856-0.14848 9.58464-1.29536 13.696-4.5824 11.37664-13.99296-1.47456-5.9904-3.75296-11.78624-5.52448-17.7152-5.8368-19.56864-15.77472-54.67648-16.47616-74.43968-1.2288-34.62144 3.23072-69.43744 5.46816-106.99776-10.86976-4.39296-24.79616-10.01984-39.79776-16.09216-18.45248 50.95936-22.02112 102.67648-27.8272 155.94496H403.26144l-26.25536-157.45536z" fill="#121212" p-id="5973"></path><path d="M488.61696 221.48096c0.57344-15.9232 12.61056-19.18976 27.07456-19.29216 19.10784-0.13824 24.9088 4.08576 28.0576 16.92672 27.25888 12.87168 53.14048 22.5792 76.38016 36.6336 38.10816 23.04512 56.44288 59.6736 59.06432 103.38304 1.21344 20.1984-1.41312 40.67328-2.99008 60.96896-0.67072 8.58624 1.6128 12.78976 10.14272 16.384 19.38432 8.17664 24.56064 26.37824 23.6544 44.84096-1.49504 30.64832-7.30112 60.19584-36.9664 78.3104-3.81952 2.33472-5.35552 8.56064-7.74144 13.08672-12.26752 23.296-21.248 49.16736-37.2736 69.48864-60.83584 77.18912-173.64992 72.70912-230.0416-7.72096-8.16128-11.63776-15.40096-24.23808-20.9664-37.29408-7.9872-18.7392-16.42496-35.40992-31.88224-50.69824-22.95808-22.71744-27.06944-54.53312-19.33312-86.05184 1.95072-7.94624 9.49248-14.8992 15.50848-21.3248 4.01408-4.28032 13.33248-6.08256 14.22848-10.28096 1.92-9.01632 1.58208-19.29216-0.73728-28.30336-16.16896-62.94528 22.10816-136.3968 83.09248-158.73536 16.72704-6.12864 33.09568-13.22496 50.72896-20.32128z" fill="#121212" p-id="5974"></path><path d="M381.9264 496.47104l-4.55168 1.1264c-4.096-10.65984-7.86432-21.46304-12.4416-31.90784-2.06336-4.70528-5.75488-8.69376-8.704-13.0048-4.41856 4.16768-12.63104 8.36608-12.60032 12.50304 0.128 18.08384 0.90112 36.56704 5.05344 54.04672 2.02752 8.5504 10.57792 18.44736 18.67264 21.90336 8.94976 3.82464 11.8272 9.1136 13.99296 16.73216 8.22784 28.86656 20.81792 55.46496 40.77568 78.20288 44.9536 51.22048 123.1616 56.28416 174.12608 11.07968 26.65472-23.63392 41.50272-54.36416 51.7376-87.80288 1.63328-5.33504 3.456-13.3376 7.26528-14.83776 33.40288-13.16864 32.72192-42.07616 33.44384-70.20544 0.12288-4.8896-2.21696-10.59328-5.21216-14.57152-2.5344-3.37408-7.53152-6.0416-11.70432-6.49728-1.82272-0.19968-4.97664 5.6576-6.41536 9.21088-4.71552 11.66848-8.9088 23.54176-13.31712 35.33312l-5.37088-1.31584v-40.87808c-21.98528 17.70496-22.78912 17.5104-44.1088 2.1248-11.14112-8.0384-22.35904-16.2816-34.52416-22.528-28.544-14.6688-58.63424-18.64704-88.73472-5.5296-15.37536 6.70208-30.0544 15.52896-43.91936 25.04192-22.23104 15.25248-25.94304 24.32512-49.71008-2.63168-0.32768-0.37376-1.8176 0.27648-3.75808 0.63488l0.00512 43.77088z" fill="" p-id="5975"></path><path d="M377.68192 741.74976l26.25536 157.45536h228.52096c5.80096-53.26848 9.36448-104.9856 27.82208-155.94496l39.80288 16.09216c-2.24256 37.56544-6.70208 72.38144-5.47328 106.99776 0.70144 19.7632 10.63936 54.87104 16.48128 74.43968 1.77152 5.92896 4.04992 11.7248 5.52448 17.7152 2.31424 9.41568-1.792 12.6976-11.37664 13.99296-120.05376 20.55168-248.27392 19.89632-372.41856 2.75456-15.81568-2.18112-22.50752-13.52192-14.05952-26.84416 31.616-49.87392 22.82496-118.50752 14.33088-171.42784-2.06848-12.89216-0.40448-19.61984 12.7744-22.97344 9.03168-2.29376 17.54624-6.65088 31.81568-12.25728z" fill="#EF8200" p-id="5976"></path><path d="M381.9264 496.47104v-43.776c1.93536-0.3584 3.4304-1.00352 3.75808-0.63488 23.76704 26.9568 27.48416 17.88416 49.71008 2.63168 13.86496-9.51296 28.544-18.34496 43.91936-25.04192 30.10048-13.12256 60.19072-9.14432 88.73472 5.5296 12.16512 6.2464 23.38304 14.4896 34.52416 22.528 21.31968 15.3856 22.12352 15.58528 44.1088-2.1248v40.87808l5.37088 1.31584c4.4032-11.79648 8.6016-23.66976 13.31712-35.33312 1.43872-3.55328 4.58752-9.41056 6.41536-9.21088 4.1728 0.45056 9.16992 3.1232 11.70432 6.49728 2.9952 3.97824 5.33504 9.68192 5.21216 14.57152-0.72704 28.1344-0.04096 57.0368-33.44384 70.20544-3.80928 1.50016-5.632 9.50272-7.26528 14.83776-10.23488 33.43872-25.08288 64.16896-51.7376 87.80288-50.96448 45.20448-129.17248 40.1408-174.12608-11.07968-19.95264-22.73792-32.54784-49.34144-40.77568-78.20288-2.16576-7.61344-5.0432-12.90752-13.99296-16.73216-8.09472-3.46112-16.64512-13.35296-18.67264-21.90336-4.15232-17.47968-4.92032-35.95776-5.05344-54.04672-0.03072-4.13696 8.18176-8.33536 12.60032-12.50304 2.94912 4.31104 6.64064 8.29952 8.704 13.0048 4.5824 10.4448 8.3456 21.25312 12.4416 31.90784l4.54656-1.12128zM475.60704 324.15744c0.95232-1.32608 1.92512-2.64704 2.86208-3.98336 6.87616-9.86112 13.76256-19.712 20.58752-29.60896 0.73216-1.05984 1.55136-1.3824 2.77504-1.37728 6.11328 0.04096 12.23168 0 18.34496 0.04096 0.68608 0 1.29536 0.21504 1.64352 0.83456 0.37888 0.6656 0.16896 1.31584-0.24576 1.92-7.49056 10.84416-15.03232 21.6576-22.55872 32.47616-4.3008 6.17472-8.60672 12.34944-12.9024 18.52928-0.21504 0.31744-0.34816 0.68608-0.65024 1.28 1.17248 0.14336 2.14528 0.28672 3.12832 0.37888 7.64416 0.69632 15.28832 1.3824 22.9376 2.08384 2.432 0.22016 2.688 0.63488 1.89952 2.97472l-17.08032 50.82624a10.4448 10.4448 0 0 1-0.37376 0.99328c-0.5632 1.24928-1.49504 1.36704-2.2272 0.19456-1.1008-1.75104-2.11456-3.56352-3.15392-5.3504l-21.18144-36.58752c-0.26624-0.45056-0.59904-0.86528-1.1776-1.69472-0.59392 3.02592-1.10592 5.57568-1.59744 8.13056-2.22208 11.44832-4.46464 22.89664-6.62016 34.3552-0.29696 1.55136-0.93696 2.05824-2.5088 2.04288-7.5776-0.07168-15.16032-0.0256-22.74304-0.03584-2.13504 0-2.48832-0.4352-2.06848-2.55488l7.75168-39.08096 9.54368-48.29696c1.43872-7.28064 2.88256-14.56128 4.2752-21.85216 0.22016-1.16736 0.74752-1.61792 1.92512-1.6128 7.8848 0.0256 15.7696 0 23.64928 0.02048 1.7408 0 2.048 0.47104 1.6896 2.304l-6.08256 31.06816c-0.09216 0.46592-0.13824 0.93696-0.20992 1.40288 0.12288 0.07168 0.24576 0.12288 0.36864 0.1792zM549.73952 289.58208c6.41536 0 12.83072 0.19456 19.2512 0.13312 7.68-0.07168 14.67392 1.8688 20.66944 6.82496 3.52768 2.92352 5.91872 6.62016 7.69024 10.86464 2.59584 6.23616 2.80576 12.75904 2.06336 19.21024-0.90624 7.90016-4.11136 14.95552-9.5232 21.01248-5.02784 5.6064-11.16672 9.28768-18.25792 11.32032a47.65184 47.65184 0 0 1-10.7264 1.67936c-5.80096 0.2816-11.6224 0.14848-17.4336 0.08704-1.56672-0.01536-2.26816 0.55808-2.54976 2.07872-0.9216 4.96128-1.92 9.9072-2.89792 14.85824-1.4592 7.36256-2.93376 14.72-4.37248 22.08256-0.29696 1.53088-0.79872 2.48832-2.6624 2.46272-8.64256-0.12288-17.28-0.11776-25.92256-0.20992-1.5104-0.01536-1.68448-0.49664-0.86528-1.73568 4.15232-6.3232 8.32-12.65152 12.44672-18.99008 5.0944-7.82848 10.1888-15.6672 15.23712-23.5264 3.712-5.77536 7.35744-11.5968 11.00288-17.40288 1.40288-2.23232 1.09056-2.67264-1.58208-3.02592-5.28896-0.70656-10.56256-1.536-15.83616-2.304-0.9984-0.14336-2.01216-0.34304-3.01568-0.3328-1.57184 0.01024-1.7664-0.8704-1.52576-2.07872 0.67584-3.36384 1.3312-6.7328 2.08384-10.08128 2.00704-8.90368 4.0704-17.79712 6.08256-26.7008 0.33792-1.46944 0.64-2.95936 0.8192-4.4544 0.16384-1.30048 0.73216-1.81248 2.06848-1.79712 5.92896 0.05632 11.84256 0.0256 17.75616 0.0256 0 0.04608 0-0.0512 0 0z m5.02784 46.99648c0-0.04608 0 0.0512 0 0 2.57024 0 5.22752 0.26624 7.69536-0.22528 6.60992-1.31584 11.31008-8.27904 10.47552-14.976-0.60416-4.83328-3.70688-7.62368-8.54528-7.65952-3.88608-0.02048-7.77216 0.04608-11.65824-0.02048-1.4848-0.03072-2.20672 0.53248-2.46272 1.9968-0.58368 3.32288-1.26464 6.62528-1.92 9.9328-0.5888 2.96448-1.24416 5.9136-1.80224 8.8832-0.33792 1.81248-0.1024 2.05312 1.70496 2.06336 2.17088 0.01536 4.34176 0.00512 6.51264 0.00512z" fill="#FFFFFF" p-id="5977"></path><path d="M516.16256 993.23904c-264.0384 0-478.848-214.81472-478.848-478.85312 0-264.0384 214.81472-478.85312 478.848-478.85312 264.04352 0 478.85824 214.81472 478.85824 478.85312 0 264.0384-214.81472 478.85312-478.85824 478.85312z m0-947.26656c-258.28352 0-468.41344 210.12992-468.41344 468.41856s210.12992 468.41856 468.41344 468.41856c258.28864 0 468.42368-210.12992 468.42368-468.41856S774.4512 45.97248 516.16256 45.97248z" fill="#121212" p-id="5978"></path></svg>